# xmcd
# 
# Track frame offsets:
#     150
#     18623
#     34799
#     48542
#     67875
#     84202
#     97992
#     119533
#     134761
#     150177
# 
# Disc length: 2317
# 
# Revision: 0
# Processed by: cddbd v1.5.2PL0 Copyright (c) Steve Scherf et al.
# Submitted via: fre:ac v1.0.31
# 
DISCID=79090b0a
DTITLE=Robert Randolph and The Family Band - Brighter Days
DYEAR=2019
DGENRE=Blues
TTITLE0=Baptise Me
TTITLE1=Don't Fight It
TTITLE2=Simple Man
TTITLE3=Have Mercy
TTITLE4=Cut Em Loose
TTITLE5=Second Hand Man
TTITLE6=Cry Over Me
TTITLE7=I Need You
TTITLE8=I'm Living Off the Love You Give
TTITLE9=Strange Train
EXTD=
EXTT0=
EXTT1=
EXTT2=
EXTT3=
EXTT4=
EXTT5=
EXTT6=
EXTT7=
EXTT8=
EXTT9=
PLAYORDER=
